<svg width="20" height="20" viewBox="0 0 567 567" fill="none" xmlns="http://www.w3.org/2000/svg">
<path d="M354.375 212.625L283.5 0L212.625 212.625L0 283.5L212.625 354.375L283.5 567L354.375 354.375L567 283.5L354.375 212.625ZM94.5 283.5L236.25 236.25L259.875 283.5H94.5ZM283.5 472.5L236.25 330.75L283.5 307.125V472.5ZM283.5 94.5L330.75 236.25L283.5 259.875V94.5ZM330.75 330.75L307.125 283.5H472.5L330.75 330.75ZM205.537 408.712L118.125 448.875L158.287 361.462L196.088 373.275L205.537 408.712ZM408.712 361.462L448.875 448.875L361.462 408.712L373.275 370.913L408.712 361.462ZM158.287 205.537L118.125 118.125L205.537 158.287L193.725 193.725L158.287 205.537ZM361.462 158.287L448.875 118.125L408.712 205.537L370.913 193.725L361.462 158.287Z" fill="white"/>
</svg>