<svg width="468" height="445" viewBox="0 0 468 445" fill="none" xmlns="http://www.w3.org/2000/svg">
<path fill-rule="evenodd" clip-rule="evenodd" d="M112.829 15.3857C112.829 11.3052 111.208 7.39175 108.322 4.50637C105.437 1.62099 101.523 0 97.4429 0C93.3623 0 89.4489 1.62099 86.5635 4.50637C83.6781 7.39175 82.0571 11.3052 82.0571 15.3857V41.0286H76.9286C67.4073 41.0286 58.276 44.8109 51.5434 51.5434C44.8109 58.276 41.0286 67.4073 41.0286 76.9286V82.0571H15.3857C11.3052 82.0571 7.39175 83.6781 4.50637 86.5635C1.62099 89.4489 0 93.3623 0 97.4429C0 101.523 1.62099 105.437 4.50637 108.322C7.39175 111.208 11.3052 112.829 15.3857 112.829H41.0286V164.114H15.3857C11.3052 164.114 7.39175 165.735 4.50637 168.621C1.62099 171.506 0 175.419 0 179.5C0 183.581 1.62099 187.494 4.50637 190.379C7.39175 193.265 11.3052 194.886 15.3857 194.886H41.0286V246.171H15.3857C11.3052 246.171 7.39175 247.792 4.50637 250.678C1.62099 253.563 0 257.477 0 261.557C0 265.638 1.62099 269.551 4.50637 272.437C7.39175 275.322 11.3052 276.943 15.3857 276.943H41.0286V282.071C41.0286 301.888 57.1118 317.971 76.9286 317.971H82.0571V343.614C82.0571 347.695 83.6781 351.608 86.5635 354.494C89.4489 357.379 93.3623 359 97.4429 359C101.523 359 105.437 357.379 108.322 354.494C111.208 351.608 112.829 347.695 112.829 343.614V317.971H164.114V343.614C164.114 347.695 165.735 351.608 168.621 354.494C171.506 357.379 175.419 359 179.5 359C183.581 359 187.494 357.379 190.379 354.494C193.265 351.608 194.886 347.695 194.886 343.614V317.971H246.171V343.614C246.171 347.695 247.792 351.608 250.678 354.494C253.563 357.379 257.477 359 261.557 359C265.638 359 269.551 357.379 272.437 354.494C275.322 351.608 276.943 347.695 276.943 343.614V317.971H282.071C291.593 317.971 300.724 314.189 307.457 307.457C314.189 300.724 317.971 291.593 317.971 282.071V276.943H343.614C347.695 276.943 351.608 275.322 354.494 272.437C357.379 269.551 359 265.638 359 261.557C359 257.477 357.379 253.563 354.494 250.678C351.608 247.792 347.695 246.171 343.614 246.171H317.971V194.886H343.614C347.695 194.886 351.608 193.265 354.494 190.379C357.379 187.494 359 183.581 359 179.5C359 175.419 357.379 171.506 354.494 168.621C351.608 165.735 347.695 164.114 343.614 164.114H317.971V112.829H343.614C347.695 112.829 351.608 111.208 354.494 108.322C357.379 105.437 359 101.523 359 97.4429C359 93.3623 357.379 89.4489 354.494 86.5635C351.608 83.6781 347.695 82.0571 343.614 82.0571H317.971V76.9286C317.971 67.4073 314.189 58.276 307.457 51.5434C300.724 44.8109 291.593 41.0286 282.071 41.0286H276.943V15.3857C276.943 11.3052 275.322 7.39175 272.437 4.50637C269.551 1.62099 265.638 0 261.557 0C257.477 0 253.563 1.62099 250.678 4.50637C247.792 7.39175 246.171 11.3052 246.171 15.3857V41.0286H194.886V15.3857C194.886 11.3052 193.265 7.39175 190.379 4.50637C187.494 1.62099 183.581 0 179.5 0C175.419 0 171.506 1.62099 168.621 4.50637C165.735 7.39175 164.114 11.3052 164.114 15.3857V41.0286H112.829V15.3857ZM71.8 76.9286C71.8 75.5684 72.3403 74.2639 73.3021 73.3021C74.2639 72.3403 75.5684 71.8 76.9286 71.8H282.071C283.432 71.8 284.736 72.3403 285.698 73.3021C286.66 74.2639 287.2 75.5684 287.2 76.9286V282.071C287.2 283.432 286.66 284.736 285.698 285.698C284.736 286.66 283.432 287.2 282.071 287.2H76.9286C75.5684 287.2 74.2639 286.66 73.3021 285.698C72.3403 284.736 71.8 283.432 71.8 282.071V76.9286ZM175.377 235.976L169.735 220.139H128.153L122.511 235.976C121.14 239.82 118.298 242.961 114.611 244.71C110.923 246.459 106.692 246.671 102.848 245.3C99.0045 243.929 95.8627 241.087 94.1142 237.399C92.3656 233.712 92.1536 229.48 93.5246 225.637L128.399 127.783L128.46 127.599L128.543 127.394C131.661 119.352 139.128 112.808 148.934 112.808C158.76 112.808 166.207 119.352 169.345 127.414L169.407 127.599L169.489 127.804L204.363 225.657C205.667 229.485 205.412 233.673 203.652 237.314C201.892 240.955 198.769 243.756 194.959 245.113C191.149 246.469 186.959 246.271 183.294 244.561C179.629 242.851 176.785 239.767 175.377 235.976ZM148.934 161.817L158.76 189.367H139.107L148.934 161.817ZM225.657 128.173C225.657 124.093 227.278 120.179 230.164 117.294C233.049 114.409 236.962 112.788 241.043 112.788C245.123 112.788 249.037 114.409 251.922 117.294C254.808 120.179 256.429 124.093 256.429 128.173V230.806C256.429 234.887 254.808 238.8 251.922 241.686C249.037 244.571 245.123 246.192 241.043 246.192C236.962 246.192 233.049 244.571 230.164 241.686C227.278 238.8 225.657 234.887 225.657 230.806V128.173Z" fill="white"/>
<path d="M443 420L322.333 299.333M81 198.778C81 217.265 84.6413 235.571 91.7161 252.651C98.7908 269.731 109.16 285.25 122.233 298.323C135.305 311.395 150.825 321.765 167.904 328.839C184.984 335.914 203.291 339.556 221.778 339.556C240.265 339.556 258.571 335.914 275.651 328.839C292.731 321.765 308.25 311.395 321.323 298.323C334.395 285.25 344.765 269.731 351.839 252.651C358.914 235.571 362.556 217.265 362.556 198.778C362.556 180.291 358.914 161.984 351.839 144.904C344.765 127.825 334.395 112.305 321.323 99.2329C308.25 86.1604 292.731 75.7908 275.651 68.7161C258.571 61.6413 240.265 58 221.778 58C203.291 58 184.984 61.6413 167.904 68.7161C150.825 75.7908 135.305 86.1604 122.233 99.2329C109.16 112.305 98.7908 127.825 91.7161 144.904C84.6413 161.984 81 180.291 81 198.778Z" stroke="#929292" stroke-width="50" stroke-linecap="round" stroke-linejoin="round"/>
</svg>
