<svg width="50" height="50" viewBox="0 0 496 542" fill="none" xmlns="http://www.w3.org/2000/svg">
<path d="M7.32233 253.322C-2.44078 263.085 -2.44078 278.915 7.32233 288.678L166.421 447.777C176.184 457.54 192.014 457.54 201.777 447.777C211.54 438.014 211.54 422.184 201.777 412.421L60.3553 271L201.777 129.579C211.54 119.816 211.54 103.986 201.777 94.2233C192.014 84.4602 176.184 84.4602 166.421 94.2233L7.32233 253.322ZM471 296C484.807 296 496 284.807 496 271C496 257.193 484.807 246 471 246L471 296ZM25 296L471 296L471 246L25 246L25 296Z" fill="white"/>
<path d="M471 25L471 517" stroke="white" stroke-width="50" stroke-linecap="round"/>
</svg>
