<svg width="50" height="50" viewBox="0 0 522 542" fill="none" xmlns="http://www.w3.org/2000/svg">
<path d="M488.677 288.678C498.44 278.915 498.44 263.085 488.677 253.322L329.578 94.2233C319.815 84.4602 303.986 84.4602 294.223 94.2233C284.46 103.986 284.46 119.816 294.223 129.579L435.644 271L294.223 412.421C284.46 422.184 284.46 438.014 294.223 447.777C303.986 457.54 319.815 457.54 329.578 447.777L488.677 288.678ZM24.9995 246C11.1924 246 -0.000487074 257.193 -0.000488281 271C-0.000489488 284.807 11.1924 296 24.9995 296L24.9995 246ZM471 246L24.9995 246L24.9995 296L471 296L471 246Z" fill="white"/>
<path d="M497 517L497 25" stroke="white" stroke-width="50" stroke-linecap="round"/>
</svg>
