<svg width="26" height="45" viewBox="0 0 26 45" fill="none" xmlns="http://www.w3.org/2000/svg">
<path d="M11.625 31.828C13.242 31.828 13.992 30.703 13.992 29.203V28.406C14.039 25.312 15.164 24.023 18.914 21.446C22.922 18.726 25.476 15.586 25.476 11.062C25.476 4.031 19.758 0 12.656 0C7.359 0 2.695 2.508 0.703 7.031C0.211 8.133 0 9.211 0 10.101C0 11.437 0.773 12.375 2.203 12.375C3.398 12.375 4.195 11.672 4.547 10.523C5.765 6.07 8.695 4.383 12.492 4.383C17.062 4.383 20.625 6.961 20.625 11.039C20.625 14.39 18.539 16.265 15.539 18.375C11.859 20.93 9.164 23.672 9.164 27.797V29.273C9.164 30.773 9.985 31.828 11.625 31.828ZM11.624 44.648C13.475 44.648 14.952 43.148 14.952 41.32C14.9544 40.8823 14.8699 40.4485 14.7035 40.0436C14.5371 39.6388 14.2921 39.2709 13.9826 38.9614C13.6731 38.6519 13.3052 38.4069 12.9004 38.2405C12.4955 38.0741 12.0617 37.9896 11.624 37.992C9.796 37.992 8.272 39.469 8.272 41.32C8.272 43.148 9.796 44.648 11.624 44.648Z" fill="white"/>
</svg>
